<svg width="55" height="55" viewBox="0 0 55 55" fill="none" xmlns="http://www.w3.org/2000/svg">
<path d="M20.3386 48.3541L39.6459 29.1041C39.875 28.875 40.037 28.6267 40.1317 28.3594C40.2279 28.092 40.2761 27.8055 40.2761 27.5C40.2761 27.1944 40.2279 26.908 40.1317 26.6406C40.037 26.3732 39.875 26.125 39.6459 25.8958L20.3386 6.58852C19.8038 6.0538 19.1354 5.78644 18.3334 5.78644C17.5313 5.78644 16.8438 6.0729 16.2709 6.64581C15.6979 7.21873 15.4115 7.88713 15.4115 8.65102C15.4115 9.41491 15.6979 10.0833 16.2709 10.6562L33.1146 27.5L16.2709 44.3437C15.7361 44.8785 15.4688 45.5369 15.4688 46.3191C15.4688 47.1029 15.7552 47.7812 16.3281 48.3541C16.9011 48.9271 17.5695 49.2135 18.3334 49.2135C19.0972 49.2135 19.7656 48.9271 20.3386 48.3541Z" fill="currentColor"/>
</svg>
