<svg width="55" height="55" viewBox="0 0 55 55" fill="none" xmlns="http://www.w3.org/2000/svg">
<path d="M34.6614 48.3541L15.3541 29.1041C15.125 28.875 14.963 28.6267 14.8683 28.3594C14.7721 28.092 14.7239 27.8055 14.7239 27.5C14.7239 27.1944 14.7721 26.908 14.8683 26.6406C14.963 26.3732 15.125 26.125 15.3541 25.8958L34.6614 6.58852C35.1962 6.0538 35.8646 5.78644 36.6666 5.78644C37.4687 5.78644 38.1562 6.0729 38.7291 6.64581C39.3021 7.21873 39.5885 7.88713 39.5885 8.65102C39.5885 9.41491 39.3021 10.0833 38.7291 10.6562L21.8854 27.5L38.7291 44.3437C39.2639 44.8785 39.5312 45.5369 39.5312 46.3191C39.5312 47.1029 39.2448 47.7812 38.6719 48.3541C38.0989 48.9271 37.4305 49.2135 36.6666 49.2135C35.9028 49.2135 35.2344 48.9271 34.6614 48.3541Z" fill="currentColor"/>
</svg>
