<svg width="40" height="40" viewBox="0 0 40 40" fill="none" xmlns="http://www.w3.org/2000/svg">
<path fill-rule="evenodd" clip-rule="evenodd" d="M4 0C1.79086 0 0 1.79086 0 4V36C0 38.2091 1.79086 40 4 40H16.518V26.001H11.431V20.21H16.518V15.796C16.518 10.775 19.509 8.001 24.085 8.001C26.277 8.001 28.569 8.392 28.569 8.392V13.322H26.043C23.554 13.322 22.778 14.867 22.778 16.451V20.209H28.335L27.446 26L22.778 26.001V40H36C38.2091 40 40 38.2091 40 36V4C40 1.79086 38.2091 0 36 0H4Z" fill="currentColor"/>
</svg>
