<svg width="40" height="39" viewBox="0 0 40 39" fill="none" xmlns="http://www.w3.org/2000/svg">
<path d="M20 0.072998C25.434 0.072998 26.112 0.092228 28.244 0.188378C30.374 0.284528 31.824 0.60567 33.1 1.08258C34.42 1.57102 35.532 2.23253 36.644 3.2998C37.661 4.2611 38.4479 5.42393 38.95 6.70736C39.444 7.93231 39.78 9.32841 39.88 11.3764C39.974 13.4263 40 14.0782 40 19.303C40 24.5278 39.98 25.1797 39.88 27.2297C39.78 29.2777 39.444 30.6718 38.95 31.8987C38.4494 33.1828 37.6622 34.346 36.644 35.3063C35.6439 36.2838 34.4346 37.0403 33.1 37.5235C31.826 37.9985 30.374 38.3215 28.244 38.4177C26.112 38.5081 25.434 38.5331 20 38.5331C14.566 38.5331 13.888 38.5138 11.756 38.4177C9.626 38.3215 8.176 37.9985 6.9 37.5235C5.56465 37.0417 4.35505 36.285 3.356 35.3063C2.33881 34.3451 1.55186 33.1823 1.05 31.8987C0.554 30.6738 0.22 29.2777 0.12 27.2297C0.0259999 25.1797 0 24.5278 0 19.303C0 14.0782 0.0199999 13.4263 0.12 11.3764C0.22 9.32649 0.554 7.93424 1.05 6.70736C1.55047 5.42314 2.33761 4.25999 3.356 3.2998C4.35534 2.32143 5.56486 1.56473 6.9 1.08258C8.176 0.60567 9.624 0.284528 11.756 0.188378C13.888 0.097997 14.566 0.072998 20 0.072998ZM20 9.68802C17.3478 9.68802 14.8043 10.701 12.9289 12.5042C11.0536 14.3074 10 16.753 10 19.303C10 21.8531 11.0536 24.2987 12.9289 26.1019C14.8043 27.905 17.3478 28.9181 20 28.9181C22.6522 28.9181 25.1957 27.905 27.0711 26.1019C28.9464 24.2987 30 21.8531 30 19.303C30 16.753 28.9464 14.3074 27.0711 12.5042C25.1957 10.701 22.6522 9.68802 20 9.68802ZM33 9.20727C33 8.56975 32.7366 7.95835 32.2678 7.50756C31.7989 7.05676 31.163 6.80351 30.5 6.80351C29.837 6.80351 29.2011 7.05676 28.7322 7.50756C28.2634 7.95835 28 8.56975 28 9.20727C28 9.84478 28.2634 10.4562 28.7322 10.907C29.2011 11.3578 29.837 11.611 30.5 11.611C31.163 11.611 31.7989 11.3578 32.2678 10.907C32.7366 10.4562 33 9.84478 33 9.20727ZM20 13.534C21.5913 13.534 23.1174 14.1418 24.2426 15.2237C25.3679 16.3056 26 17.773 26 19.303C26 20.8331 25.3679 22.3004 24.2426 23.3823C23.1174 24.4642 21.5913 25.072 20 25.072C18.4087 25.072 16.8826 24.4642 15.7574 23.3823C14.6321 22.3004 14 20.8331 14 19.303C14 17.773 14.6321 16.3056 15.7574 15.2237C16.8826 14.1418 18.4087 13.534 20 13.534Z" fill="currentColor"/>
</svg>
