<svg width="40" height="39" viewBox="0 0 40 39" fill="none" xmlns="http://www.w3.org/2000/svg">
<path d="M14.08 37.6485C16 38.2062 17.94 38.5331 20 38.5331C25.3043 38.5331 30.3914 36.5071 34.1421 32.9007C37.8929 29.2944 40 24.4032 40 19.303C40 16.7777 39.4827 14.2771 38.4776 11.944C37.4725 9.61092 35.9993 7.49102 34.1421 5.70535C32.285 3.91967 30.0802 2.5032 27.6537 1.5368C25.2272 0.570398 22.6264 0.072998 20 0.072998C17.3736 0.072998 14.7728 0.570398 12.3463 1.5368C9.91982 2.5032 7.71504 3.91967 5.85786 5.70535C2.10714 9.31168 0 14.2029 0 19.303C0 27.4758 5.34 34.4948 12.88 37.2639C12.7 35.764 12.52 33.2833 12.88 31.5718L15.18 22.0722C15.18 22.0722 14.6 20.9568 14.6 19.1877C14.6 16.5339 16.32 14.5532 18.28 14.5532C20 14.5532 20.8 15.7647 20.8 17.3223C20.8 18.9761 19.66 21.3414 19.08 23.6106C18.74 25.4951 20.12 27.1489 22.12 27.1489C25.68 27.1489 28.44 23.4952 28.44 18.3415C28.44 13.7263 25 10.5726 20.06 10.5726C14.42 10.5726 11.1 14.6109 11.1 18.8607C11.1 20.5145 11.66 22.1875 12.58 23.2837C12.76 23.399 12.76 23.5529 12.7 23.8413L12.12 25.9374C12.12 26.2643 11.9 26.3797 11.56 26.1489C9 25.072 7.52 21.5722 7.52 18.7454C7.52 12.6687 12 7.14965 20.64 7.14965C27.52 7.14965 32.88 11.8995 32.88 18.2069C32.88 24.8221 28.62 30.1295 22.52 30.1295C20.58 30.1295 18.68 29.1296 18 27.9566L16.66 32.5141C16.2 34.1679 14.94 36.3793 14.08 37.7062V37.6485Z" fill="currentColor"/>
</svg>
