<svg width="30" height="30" viewBox="0 0 30 30" fill="none" xmlns="http://www.w3.org/2000/svg">
<path d="M11.25 25C11.5815 25 11.8995 25.1317 12.1339 25.3661C12.3683 25.6005 12.5 25.9185 12.5 26.25C12.5 26.5815 12.3683 26.8995 12.1339 27.1339C11.8995 27.3683 11.5815 27.5 11.25 27.5C10.9185 27.5 10.6005 27.3683 10.3661 27.1339C10.1317 26.8995 10 26.5815 10 26.25C10 25.9185 10.1317 25.6005 10.3661 25.3661C10.6005 25.1317 10.9185 25 11.25 25ZM20 25C20.3315 25 20.6495 25.1317 20.8839 25.3661C21.1183 25.6005 21.25 25.9185 21.25 26.25C21.25 26.5815 21.1183 26.8995 20.8839 27.1339C20.6495 27.3683 20.3315 27.5 20 27.5C19.6685 27.5 19.3505 27.3683 19.1161 27.1339C18.8817 26.8995 18.75 26.5815 18.75 26.25C18.75 25.9185 18.8817 25.6005 19.1161 25.3661C19.3505 25.1317 19.6685 25 20 25ZM4.36875 3.28874L4.5 3.37624L6.635 4.97624C6.99832 5.24886 7.28051 5.61532 7.45125 6.03624L7.52625 6.24999H23.5837C23.9226 6.24991 24.258 6.31872 24.5695 6.45225C24.8809 6.58578 25.162 6.78124 25.3956 7.02676C25.6292 7.27227 25.8104 7.56272 25.9283 7.88044C26.0462 8.19816 26.0982 8.53653 26.0812 8.87499L26.065 9.05999L25.4937 13.6287C25.3223 15.0036 24.6989 16.2826 23.7214 17.2646C22.7439 18.2466 21.4678 18.876 20.0937 19.0537L19.8112 19.0825L10.67 19.845L10.995 21.25H21.875C22.1936 21.2503 22.5 21.3723 22.7317 21.5911C22.9634 21.8098 23.1028 22.1087 23.1215 22.4267C23.1401 22.7448 23.0367 23.058 22.8322 23.3023C22.6277 23.5466 22.3376 23.7036 22.0212 23.7412L21.875 23.75H10.995C10.4645 23.7501 9.94773 23.5814 9.51943 23.2684C9.09113 22.9554 8.7735 22.5142 8.6125 22.0087L8.55875 21.8125L5.13375 6.97499L3 5.37499C2.75612 5.1922 2.58742 4.92661 2.52564 4.62816C2.46385 4.32971 2.51323 4.01897 2.66449 3.75438C2.81576 3.48979 3.05847 3.28957 3.347 3.19139C3.63553 3.09321 3.94999 3.10383 4.23125 3.22124L4.36875 3.28874ZM23.5837 8.74999H8.10875L10.1025 17.3825L19.6025 16.5912C20.4599 16.5199 21.2667 16.1559 21.8876 15.5603C22.5084 14.9647 22.9056 14.1737 23.0125 13.32L23.5837 8.74999Z" fill="currentColor"/>
</svg>
