<svg width="40" height="39" viewBox="0 0 40 39" fill="none" xmlns="http://www.w3.org/2000/svg">
<path d="M39.9607 9.07403C39.9586 8.38128 39.8928 7.69006 39.764 7.00846C39.6202 6.17523 39.3465 5.3676 38.9524 4.61278C38.52 3.81961 37.9572 3.09882 37.2857 2.4783C36.2724 1.52564 35.0212 0.839699 33.6525 0.486433C32.395 0.193404 31.1028 0.0608625 29.8093 0.092227L29.8026 0.072998H10.1897V0.092227C9.45355 0.0864915 8.71755 0.11805 7.9848 0.186772C7.18317 0.269194 6.3941 0.440184 5.63319 0.696356C4.37873 1.15057 3.25334 1.88282 2.34841 2.83366C1.44348 3.7845 0.784502 4.92713 0.42499 6.16877C0.122297 7.36735 -0.0155433 8.59894 0.0149993 9.832L0 28.7507C0.0127645 29.6073 0.0734064 30.4627 0.181662 31.313C0.315254 32.2103 0.591235 33.0826 0.999975 33.8994C1.57708 34.9903 2.39841 35.9448 3.40492 36.6941C4.1241 37.2452 4.9388 37.67 5.81152 37.9488C7.09275 38.329 8.42727 38.5171 9.76809 38.5065C10.6081 38.5113 11.4464 38.5321 12.2847 38.5289C18.3845 38.5033 24.4827 38.5706 30.5809 38.4921C31.3866 38.4751 32.1894 38.3931 32.9808 38.2469C34.4764 37.994 35.8684 37.3434 36.9991 36.3688C38.3304 35.2574 39.26 33.7682 39.654 32.1159C39.8964 31.0096 40.0121 29.8811 39.999 28.7507V28.5247C39.999 28.4366 39.9657 9.32722 39.9607 9.07403ZM34.6058 26.8694C34.3491 27.4463 33.0558 27.9222 30.8659 28.2475C30.6609 28.2796 30.5742 28.5984 30.4559 29.1208C30.4059 29.3372 30.3559 29.5487 30.2892 29.7698C30.2692 29.8638 30.2141 29.9475 30.1342 30.0051C30.0544 30.0627 29.9554 30.0902 29.8559 30.0823H29.8226C29.6129 30.0752 29.4043 30.05 29.1993 30.007C28.6588 29.8979 28.1082 29.8415 27.556 29.8388C27.1595 29.8398 26.7637 29.8719 26.3727 29.9349C25.5465 30.136 24.7781 30.5133 24.1244 31.039C23.0199 31.9457 21.6321 32.4719 20.1812 32.5341C20.0978 32.5341 20.0178 32.5309 19.9578 32.5277C19.9091 32.5318 19.8601 32.5339 19.8112 32.5341C18.3609 32.4728 16.9735 31.9471 15.8696 31.0406C15.2154 30.5145 14.4464 30.1366 13.6197 29.9349C13.2286 29.8719 12.8329 29.8397 12.4364 29.8388C11.8843 29.8441 11.3342 29.9037 10.7947 30.0166C10.5899 30.0627 10.3814 30.0917 10.1714 30.1032C10.0657 30.1145 9.95939 30.0877 9.87313 30.0279C9.78688 29.968 9.72686 29.8795 9.70476 29.7795C9.63995 29.5638 9.58435 29.3457 9.53809 29.1257C9.4181 28.6 9.33143 28.2796 9.12644 28.2491C6.93816 27.9238 5.64319 27.4463 5.38653 26.8662C5.36049 26.8083 5.34526 26.7465 5.34153 26.6835C5.33628 26.6002 5.36339 26.5181 5.41759 26.4529C5.47179 26.3878 5.54922 26.3443 5.63486 26.331C7.4454 26.0159 9.07693 25.0833 10.2297 23.7045C10.8642 22.9991 11.3917 22.2109 11.7964 21.3633L11.803 21.3473C11.9224 21.1595 11.9977 20.9489 12.0236 20.7303C12.0495 20.5116 12.0254 20.2901 11.953 20.0814C11.6714 19.4404 10.7364 19.1567 10.1197 18.9676C9.9793 18.9274 9.84033 18.8825 9.70309 18.833C9.15644 18.6247 8.25646 18.1856 8.37646 17.5783C8.46831 17.35 8.63206 17.155 8.84481 17.0205C9.05756 16.8861 9.30869 16.8189 9.56309 16.8284C9.6869 16.8256 9.80982 16.8491 9.92309 16.8973C10.3846 17.1244 10.8917 17.2528 11.4097 17.2738C11.7173 17.2947 12.0219 17.205 12.2647 17.0222C12.2491 16.7413 12.2314 16.4609 12.2114 16.181C11.9298 14.2838 12.05 12.3516 12.5647 10.5002C13.1701 9.17152 14.1692 8.04375 15.4372 7.25774C16.7052 6.47173 18.1859 6.06232 19.6945 6.08063L20.2845 6.07582C21.795 6.05724 23.2778 6.46676 24.5479 7.2533C25.8179 8.03984 26.8189 9.16856 27.426 10.4986C27.9409 12.3516 28.0611 14.2854 27.7793 16.1842L27.7743 16.2755L27.7276 17.0239C27.9482 17.1919 28.223 17.2804 28.5043 17.2738C28.992 17.2386 29.4678 17.1111 29.9043 16.8989C30.0487 16.8384 30.205 16.8083 30.3626 16.8107C30.5413 16.8102 30.7184 16.8428 30.8842 16.9069L30.8926 16.9101C31.08 16.9534 31.2499 17.0493 31.3805 17.1857C31.5111 17.3222 31.5965 17.4928 31.6259 17.6761C31.6325 17.9709 31.4059 18.41 30.2876 18.8346C30.1508 18.8838 30.0124 18.9287 29.8726 18.9692C29.2543 19.1583 28.321 19.4436 28.0393 20.083C27.9671 20.2915 27.9431 20.5127 27.969 20.7311C27.9949 20.9495 28.0701 21.1598 28.1893 21.3473L28.196 21.3633C28.7555 22.5918 29.6027 23.6794 30.6715 24.5411C31.7403 25.4028 33.0018 26.0154 34.3575 26.331C34.443 26.3446 34.5202 26.3882 34.5743 26.4533C34.6284 26.5183 34.6557 26.6003 34.6508 26.6835C34.6473 26.7475 34.6321 26.8105 34.6058 26.8694Z" fill="currentColor"/>
</svg>
