<?xml version="1.0" encoding="UTF-8"?>
<svg id="Layer_2" data-name="Layer 2" xmlns="http://www.w3.org/2000/svg" xmlns:xlink="http://www.w3.org/1999/xlink" viewBox="0 0 167.05 192.21">
  <defs>
    <style>
      .cls-1 {
        fill: url(#Degradado_sin_nombre_2-4);
      }

      .cls-2 {
        fill: url(#Degradado_sin_nombre_2-3);
      }

      .cls-3 {
        fill: #1b0c4d;
      }

      .cls-4 {
        font-family: Poppins-Regular, Poppins;
        font-size: 24px;
      }

      .cls-4, .cls-5 {
        fill: #fff;
      }

      .cls-6 {
        fill: url(#Degradado_sin_nombre_2);
      }

      .cls-7 {
        fill: url(#Degradado_sin_nombre_5);
      }

      .cls-5 {
        font-family: Poppins-Light, Poppins;
        font-size: 12px;
        font-weight: 300;
      }

      .cls-8 {
        fill: url(#Degradado_sin_nombre_2-2);
      }
    </style>
    <linearGradient id="Degradado_sin_nombre_5" data-name="Degradado sin nombre 5" x1="126.54" y1="180.95" x2="70.54" y2="63.45" gradientUnits="userSpaceOnUse">
      <stop offset="0" stop-color="#1f19ff"/>
      <stop offset="1" stop-color="#ff3bc8"/>
    </linearGradient>
    <linearGradient id="Degradado_sin_nombre_2" data-name="Degradado sin nombre 2" x1="31.78" y1="-45.31" x2="158.78" y2="197.19" gradientUnits="userSpaceOnUse">
      <stop offset="0" stop-color="#ffad0d"/>
      <stop offset="1" stop-color="#ff2aa2"/>
    </linearGradient>
    <linearGradient id="Degradado_sin_nombre_2-2" data-name="Degradado sin nombre 2" x1="19.25" y1="-38.75" x2="146.25" y2="203.75" xlink:href="#Degradado_sin_nombre_2"/>
    <linearGradient id="Degradado_sin_nombre_2-3" data-name="Degradado sin nombre 2" x1="41.33" y1="-50.31" x2="168.33" y2="192.19" xlink:href="#Degradado_sin_nombre_2"/>
    <linearGradient id="Degradado_sin_nombre_2-4" data-name="Degradado sin nombre 2" x1="59.95" y1="36.24" x2="71.74" y2="58.76" xlink:href="#Degradado_sin_nombre_2"/>
  </defs>
  <g id="TEXTS">
    <g>
      <rect class="cls-3" width="167.05" height="192.21" rx="32.37" ry="32.37"/>
      <g>
        <g>
          <path class="cls-7" d="m109.48,61.15l-38.91-6.32c-1.39-.23-2.66.85-2.66,2.27v87.11c4.43.96,9.03,1.46,13.75,1.46,10.72,0,20.83-2.58,29.75-7.16V63.41c0-1.12-.82-2.08-1.93-2.26Z"/>
          <path class="cls-6" d="m75.24,50.5l14.3,2.32c-.35-2.27-2.07-4.16-4.37-4.65l-9.94-2.1v4.43Z"/>
          <path class="cls-8" d="m81.66,15.17c-36.04,0-65.25,29.21-65.25,65.25,0,26.02,15.22,48.47,37.25,58.95V52.76c0-1.08.37-2.07.97-2.86,0,0,0,0,0,0v-.25c0-3.21,1.43-6.21,3.92-8.23,2.5-2.02,5.73-2.8,8.87-2.13l3.97.84c.67-1.32,1.6-2.5,2.78-3.46,2.5-2.02,5.73-2.8,8.87-2.13l18.81,3.99c4.9,1.04,8.4,5.36,8.4,10.37v7.28l4.17.68c2.31.38,4,2.37,4,4.7v72.79c17.21-11.75,28.5-31.51,28.5-53.92,0-36.04-29.21-65.25-65.25-65.25Z"/>
          <path class="cls-2" d="m94.62,53.64l10.62,1.72v-6.47c0-2.63-1.87-4.93-4.44-5.48l-18.81-3.99c-1.66-.35-3.37.06-4.68,1.13-.26.21-.48.44-.7.68l9.6,2.03c4.87,1.03,8.4,5.38,8.4,10.36Z"/>
        </g>
        <path class="cls-3" d="m97.51,64.37l-16.05-2.5c-.59-.09-1-.65-.91-1.24h0c.09-.59.65-1,1.24-.91l16.05,2.5c.59.09,1,.65.91,1.24h0c-.09.59-.65,1-1.24.91Z"/>
        <path class="cls-1" d="m66.38,44.19c-1.66-.35-3.37.06-4.69,1.12-.56.45-1.01,1-1.35,1.6-.33.6.02,1.34.7,1.45l.47.08,4.47.58h0c.15.01.3.03.45.05l3.81.62v-4.68l-3.86-.82Z"/>
      </g>
      <text class="cls-4" transform="translate(18.25 166.84)"><tspan x="0" y="0">PhoneStore</tspan></text>
      <text class="cls-5" transform="translate(18.25 177.77)"><tspan x="0" y="0">The future within reach</tspan></text>
    </g>
  </g>
</svg>